HIERARCHY
ROOT Hips
{
	OFFSET 0.000000 0.000000 0.000000
	CHANNELS 6 Xposition Yposition Zposition Zrotation Xrotation Yrotation
	JOINT LeftUpperLeg
	{
		OFFSET 0.082078 0.015996 -0.067517
		CHANNELS 3 Zrotation Xrotation Yrotation
		JOINT LeftLowerLeg
		{
			OFFSET 0.000000 -0.002846 -0.443705
			CHANNELS 3 Zrotation Xrotation Yrotation
			JOINT LeftFoot
			{
				OFFSET 0.000000 0.029822 -0.444279
				CHANNELS 3 Zrotation Xrotation Yrotation
				JOINT LeftToes
				{
					OFFSET 0.000000 -0.107106 -0.087287
					CHANNELS 3 Zrotation Xrotation Yrotation
					End Site
					{
						OFFSET 0.000000 -0.107106 -0.087287
					}
				}
			}
		}
	}
	JOINT RightUpperLeg
	{
		OFFSET -0.082078 0.015996 -0.067517
		CHANNELS 3 Zrotation Xrotation Yrotation
		JOINT RightLowerLeg
		{
			OFFSET 0.000000 -0.002862 -0.443705
			CHANNELS 3 Zrotation Xrotation Yrotation
			JOINT RightFoot
			{
				OFFSET 0.000000 0.029838 -0.444277
				CHANNELS 3 Zrotation Xrotation Yrotation
				JOINT RightToes
				{
					OFFSET 0.000000 -0.107106 -0.087287
					CHANNELS 3 Zrotation Xrotation Yrotation
					End Site
					{
						OFFSET 0.000000 -0.107106 -0.087287
					}
				}
			}
		}
	}
	JOINT Spine
	{
		OFFSET 0.000000 -0.001315 0.101816
		CHANNELS 3 Zrotation Xrotation Yrotation
		JOINT Chest
		{
			OFFSET 0.000000 0.010008 0.100835
			CHANNELS 3 Zrotation Xrotation Yrotation
			JOINT UpperChest
			{
				OFFSET 0.000000 0.013734 0.091000
				CHANNELS 3 Zrotation Xrotation Yrotation
				JOINT LeftShoulder
				{
					OFFSET 0.045704 0.026280 0.109460
					CHANNELS 3 Zrotation Xrotation Yrotation
					JOINT LeftUpperArm
					{
						OFFSET 0.105924 0.022321 -0.005246
						CHANNELS 3 Zrotation Xrotation Yrotation
						JOINT LeftLowerArm
						{
							OFFSET 0.278415 0.000000 -0.000001
							CHANNELS 3 Zrotation Xrotation Yrotation
							JOINT LeftHand
							{
								OFFSET 0.283288 0.000000 0.000000
								CHANNELS 3 Zrotation Xrotation Yrotation
								End Site
								{
									OFFSET 0.283288 0.000000 0.000000
								}
							}
						}
					}
				}
				JOINT Neck
				{
					OFFSET 0.000000 0.025162 0.166717
					CHANNELS 3 Zrotation Xrotation Yrotation
					JOINT Head
					{
						OFFSET 0.000000 -0.016850 0.096179
						CHANNELS 3 Zrotation Xrotation Yrotation
						End Site
						{
							OFFSET 0.000000 -0.016850 0.096179
						}
					}
				}
				JOINT RightShoulder
				{
					OFFSET -0.045700 0.026280 0.109462
					CHANNELS 3 Zrotation Xrotation Yrotation
					JOINT RightUpperArm
					{
						OFFSET -0.105929 0.022321 -0.005248
						CHANNELS 3 Zrotation Xrotation Yrotation
						JOINT RightLowerArm
						{
							OFFSET -0.278415 0.000000 0.000000
							CHANNELS 3 Zrotation Xrotation Yrotation
							JOINT RightHand
							{
								OFFSET -0.283288 -0.000001 0.000000
								CHANNELS 3 Zrotation Xrotation Yrotation
								End Site
								{
									OFFSET -0.283288 -0.000001 0.000000
								}
							}
						}
					}
				}
			}
		}
	}
}
MOTION
Frames: 14
Frame Time: 0.016949
-0.093702 0.064454 1.052160 -22.972235 7.398092 -0.732871 22.124653 2.187356 -2.111101 0.000004 -4.207740 0.000005 6.673583 12.309299 -0.560768 0.023421 -11.529688 -0.018221 -7.612271 -4.517766 1.664720 -0.000004 -4.211778 -0.000000 -2.958373 5.676942 -0.959236 0.069106 -3.410455 -0.055611 -2.956066 7.598450 -0.211523 -3.299368 2.778841 -0.468182 -0.000001 -0.000001 -0.000000 -21.379380 -5.535172 11.119860 -36.089265 -20.269891 57.507324 -0.000009 -0.000005 0.000210 353.670310 53.962733 -371.478607 11.723519 -17.459408 1.529481 12.133114 -6.019316 2.658209 13.383881 -3.297437 -11.798540 14.270371 -8.854256 -63.472320 -0.000201 -0.000008 0.000001 3.135687 54.489856 13.077537 
-0.101236 0.064521 1.049463 -22.654141 7.837239 -0.976080 22.120495 2.027909 -2.068324 0.000002 -4.207754 0.000005 6.697711 10.642902 -0.749857 0.047502 -8.683653 -0.037417 -7.153887 -4.596086 1.562432 0.000001 -4.211747 0.000004 -3.093403 4.176490 -0.644201 0.022065 -1.492533 -0.017882 -2.488499 7.718371 -0.295474 -2.785509 2.815560 -0.441133 0.000002 0.000000 -0.000001 -20.068761 -5.175394 11.250460 -33.917610 -19.310044 58.313457 0.000005 -0.000009 0.000196 354.413216 50.986905 -372.882457 11.365904 -17.396476 1.437912 12.035705 -6.695490 3.678748 13.422670 -3.308509 -11.795973 14.801418 -9.041735 -62.660483 -0.000198 -0.000008 -0.000002 3.625528 50.769435 13.823442 
-0.104966 0.064429 1.048244 -22.473018 8.104293 -1.166203 22.002298 1.927784 -1.972352 -0.000003 -4.207742 -0.000002 6.677279 9.782489 -0.855075 0.053668 -7.258493 -0.042530 -6.794980 -4.630402 1.601409 -0.000005 -4.211752 -0.000000 -3.153480 3.195786 -0.440148 0.003906 -0.347676 -0.003177 -2.226854 7.779038 -0.341075 -2.496683 2.831658 -0.430271 -0.000001 -0.000001 -0.000002 -19.481269 -5.013137 11.306738 -32.886155 -18.764437 58.484670 0.000003 -0.000011 0.000198 354.553344 49.006177 -373.608561 11.165799 -17.368724 1.384764 11.982742 -7.023108 4.218073 13.420594 -3.307932 -11.796182 14.979775 -9.070227 -62.205511 -0.000203 -0.000011 -0.000001 3.718071 49.076412 14.210474 
-0.111421 0.064409 1.046244 -22.142695 8.357992 -1.332819 21.825945 1.943341 -2.069199 0.000000 -4.207736 0.000001 6.650341 7.767457 -1.086188 0.047811 -4.149733 -0.038365 -5.926247 -8.186707 1.637805 -0.006369 2.805774 -0.144385 -3.207902 -0.026677 -0.137043 -0.000004 0.000002 0.000000 -1.767131 7.813310 -0.362739 -1.986246 2.827552 -0.390934 0.000001 0.000001 -0.000001 -18.299999 -4.685113 11.415065 -30.622053 -17.533680 58.784481 -0.000003 -0.000001 0.000190 354.960860 44.886149 -375.222507 10.739544 -17.389107 1.303685 11.646581 -7.309987 4.432906 13.394179 -3.300373 -11.797903 15.150446 -9.039028 -61.451922 -0.000208 -0.000008 0.000007 3.095256 46.672236 14.906003 
-0.114684 0.063995 1.045230 -21.889904 8.691682 -1.629462 21.792019 1.829413 -1.829514 0.000002 -4.207724 0.000003 6.651065 6.841588 -1.233260 0.037477 -2.654841 -0.030247 -5.569763 -9.751481 1.829391 -0.003684 5.471434 -0.176756 -3.256001 -1.070218 -0.022158 0.000001 0.000003 0.000001 -1.449637 7.855986 -0.383099 -1.633800 2.835129 -0.368887 0.000000 -0.000002 0.000000 -17.816299 -4.550144 11.457651 -29.643462 -16.931950 58.714642 0.000005 -0.000008 0.000196 354.739508 42.714418 -376.173106 10.377326 -17.400629 1.236254 11.381345 -7.665132 4.681355 13.336280 -3.283845 -11.801728 15.139965 -8.923724 -60.840265 -0.000198 -0.000011 -0.000005 2.436309 45.535826 15.565774 
-0.120219 0.063134 1.044119 -21.386483 8.849967 -1.890921 21.737343 -0.545833 -2.104835 0.038791 0.686220 0.619937 6.617714 2.925721 -1.585327 -0.000001 0.000005 0.000001 -5.135719 -10.892173 1.871146 0.000058 7.872994 -0.191207 -3.392201 -1.735583 0.185208 -0.000006 0.000003 -0.000002 -0.781456 7.887530 -0.377503 -0.888795 2.829823 -0.302639 0.000001 -0.000002 -0.000000 -16.801541 -4.265822 11.543699 -27.384172 -15.575504 58.617298 -0.000006 -0.000009 0.000218 354.334095 38.989496 -378.004853 9.502683 -17.430692 1.120234 10.545371 -8.049526 4.697951 13.172174 -3.236967 -11.812764 14.824932 -8.559806 -59.818244 -0.000196 -0.000006 0.000002 1.616121 42.741661 16.001200 
-0.123042 0.062385 1.043586 -21.060147 9.050958 -2.166428 21.633215 -3.344750 -2.226079 0.021080 5.942410 1.263266 6.554217 1.031465 -1.763361 -0.000003 -0.000007 0.000001 -4.953228 -11.508332 2.029253 0.001888 8.891457 -0.203285 -3.486505 -2.048224 0.260014 -0.000001 0.000003 0.000001 -0.229656 7.921055 -0.386937 -0.274007 2.832464 -0.258048 0.000000 0.000001 -0.000000 -16.379355 -4.147068 11.578108 -26.368715 -14.949428 58.504545 0.000002 -0.000011 0.000204 354.391359 37.577139 -379.076182 8.825127 -17.418806 1.017058 9.931285 -8.275601 4.845587 13.026904 -3.195428 -11.822294 14.461956 -8.242019 -59.181123 -0.000203 -0.000004 0.000022 1.389760 40.739517 16.389024 
-0.127719 0.061175 1.043525 -20.387507 9.091658 -2.416146 21.423032 -6.600821 -2.486931 -0.077677 12.244999 1.990626 6.435388 -0.575919 -2.064766 0.000002 0.000005 -0.000000 -4.762615 -11.672845 2.081631 0.003292 9.512994 -0.222746 -3.696562 -2.027975 0.387584 -0.000001 0.000002 -0.000000 0.947673 7.912811 -0.373113 1.039957 2.815270 -0.148185 -0.000001 0.000001 -0.000000 -15.529774 -3.907331 11.645000 -24.131075 -13.581834 58.244766 -0.000008 -0.000005 0.000222 355.088640 36.199094 -380.912711 7.269682 -17.391052 0.789205 8.351178 -8.113572 4.612446 12.669619 -3.093198 -11.845514 13.412875 -7.463481 -58.032771 -0.000205 -0.000007 0.000020 0.893563 36.715610 17.009720 
-0.130053 0.060344 1.044180 -19.953479 9.185599 -2.657727 21.257697 -7.694644 -2.365071 -0.126021 14.299428 2.195275 6.347826 -0.787832 -2.197989 0.000001 0.000005 -0.000003 -4.788781 -11.542229 2.206696 0.002912 9.222621 -0.238461 -3.836648 -1.767634 0.447826 -0.000001 0.000003 0.000000 1.663176 7.902814 -0.384876 1.837892 2.811853 -0.091335 -0.000002 -0.000001 0.000001 -15.179552 -3.808214 11.671713 -23.129114 -12.969575 58.103320 0.000002 -0.000013 0.000220 355.172296 36.395851 -381.104885 6.326701 -17.369617 0.641857 7.433875 -7.918019 4.627875 12.444025 -3.028552 -11.859705 12.726900 -6.988820 -57.406415 -0.000202 -0.000004 -0.000003 0.940765 34.983542 17.262782 
-0.133504 0.058838 1.045541 -19.022123 9.069451 -2.913919 20.653042 -9.889367 -2.320442 -0.262649 18.987357 2.630233 6.074999 -1.454249 -2.345602 0.000002 0.000003 -0.000001 -5.010959 -10.881177 2.281132 0.001383 8.421509 -0.269893 -4.123916 -1.265431 0.568915 -0.000000 -0.000003 -0.000001 2.865776 7.827380 -0.381159 3.179107 2.780042 0.018535 -0.000000 0.000000 0.000000 -14.439310 -3.598176 11.726158 -20.839500 -11.573591 57.719176 -0.000002 -0.000008 0.000213 355.633388 36.579099 -380.636361 4.651531 -17.288469 0.371837 5.680982 -6.941371 4.247765 12.022217 -2.907556 -11.885875 11.384437 -6.117106 -56.388201 -0.000202 -0.000006 -0.000007 1.403534 33.061800 17.195483 
-0.134963 0.058094 1.046245 -18.549564 8.954492 -3.031925 20.139036 -10.861532 -2.257271 -0.338187 21.247901 2.803782 5.853210 -1.797099 -2.306983 -0.000001 0.000000 -0.000001 -5.201357 -10.487230 2.312639 0.000423 8.006197 -0.286118 -4.263174 -1.058234 0.628429 0.000002 0.000002 0.000001 3.331536 7.780099 -0.389161 3.698243 2.762912 0.059457 -0.000001 -0.000001 0.000000 -14.055583 -3.489018 11.753537 -19.539616 -10.801139 57.537384 -0.000006 -0.000003 0.000202 356.001809 36.489387 -379.949107 4.009462 -17.255366 0.270568 5.014680 -6.375976 4.178536 11.822936 -2.850324 -11.897943 10.798911 -5.738700 -55.872675 -0.000206 -0.000007 -0.000000 1.645775 32.965748 17.089214 
-0.138058 0.055923 1.047610 -17.518151 8.976537 -3.487747 18.806291 -12.567000 -1.687575 -0.468358 25.108090 2.991292 5.336176 -2.252169 -2.132753 -0.000000 -0.000005 0.000001 -5.681925 -9.921243 2.562392 -0.001903 7.155872 -0.316366 -4.550949 -0.782733 0.768049 0.000002 0.000002 0.000000 4.097658 7.738023 -0.454301 4.549900 2.754200 0.103005 -0.000000 0.000001 0.000001 -13.364658 -3.292008 11.800906 -17.111866 -9.327631 56.936785 -0.000003 -0.000007 0.000215 356.244280 35.390912 -377.765906 2.933017 -17.229914 0.110938 4.043686 -5.835875 4.706482 11.393583 -2.726877 -11.923340 9.836292 -5.075388 -54.501925 -0.000206 -0.000003 0.000029 1.766233 33.893045 17.122202 
-0.139177 0.054801 1.048935 -16.999864 8.771124 -3.600806 18.410768 -13.058800 -1.491883 -0.529076 26.679334 3.086574 5.181772 -2.325042 -2.082356 -0.000002 -0.000007 0.000002 -5.983995 -8.834540 2.585641 -0.005795 5.590919 -0.293427 -4.688531 -0.125503 0.870327 -0.000001 -0.000003 0.000000 4.319652 7.701597 -0.466198 4.797578 2.744056 0.118298 0.000000 -0.000001 -0.000001 -13.000819 -3.188030 11.825007 -15.782260 -8.527454 56.551142 -0.000004 -0.000002 0.000197 356.480823 35.103593 -376.936120 2.573222 -17.244139 0.074673 3.690001 -5.533127 4.805524 11.202358 -2.671825 -11.934273 9.391932 -4.787930 -53.947392 -0.000201 -0.000005 -0.000000 1.673034 34.783042 17.006597 
-0.140862 0.052255 1.049750 -15.952351 8.399192 -3.832810 18.133804 -14.258894 -0.985491 -0.707821 30.253377 3.441771 5.068477 -2.805530 -2.060871 -0.000001 0.000002 -0.000001 -6.581382 -7.942359 2.705436 -0.007946 4.918202 -0.309777 -4.927440 -0.045860 0.995286 0.000002 0.000000 -0.000001 4.564647 7.683815 -0.493042 5.070633 2.735820 0.121853 0.000000 0.000000 0.000000 -12.320008 -2.993064 11.868468 -13.398047 -7.077278 55.533382 0.000001 -0.000007 0.000212 356.794493 35.718457 -375.476891 1.989189 -17.235065 0.018421 3.164469 -5.365473 5.167921 10.796552 -2.554891 -11.957106 8.743136 -4.322565 -52.548282 -0.000201 -0.000005 0.000006 1.507926 37.017327 16.517947 
